# xmcd
#
# Track frame offsets: 
#        150
#        24710
#        42313
#        67809
#        92218
#        116471
#        140864
#        165502
#        193470
#        222348
#
# Disc length: 3217 seconds
#
# Revision: 0
# Processed by: cddbd v1.5.2PL0 Copyright (c) Steve Scherf et al.
# Submitted via: ExactAudioCopy v1.0b3
#
DISCID=950c8f0a
DTITLE=Various Artist - Vu Lan Nho Me
DYEAR=1998
DGENRE=
TTITLE0=Viet Dzung - Bong hong cai ao
TTITLE1=Luu Hong - Vu Lan nho Me
TTITLE2=Ngoc Minh - Anh dao vang
TTITLE3=Mai Ngoc Khanh - Tieng kinh chua toi
TTITLE4=Quoc Anh - Vu Lan goi Me
TTITLE5=Son Ca - Khinh Phat
TTITLE6=Mai Ngoc Khanh - Trai tim Bo Tat
TTITLE7=Bang Chau - Be tho di le chua
TTITLE8=Ngoc Minh - Niem Phat
TTITLE9=Quoc Thai - Ben dong suoi Vo Vi
EXTD=
EXTT0=
EXTT1=
EXTT2=
EXTT3=
EXTT4=
EXTT5=
EXTT6=
EXTT7=
EXTT8=
EXTT9=
PLAYORDER=
